<?xml version="1.0" encoding="UTF-8" standalone="no"?>
<svg
   xmlns:dc="http://purl.org/dc/elements/1.1/"
   xmlns:cc="http://creativecommons.org/ns#"
   xmlns:rdf="http://www.w3.org/1999/02/22-rdf-syntax-ns#"
   xmlns:svg="http://www.w3.org/2000/svg"
   xmlns="http://www.w3.org/2000/svg"
   xmlns:sodipodi="http://sodipodi.sourceforge.net/DTD/sodipodi-0.dtd"
   xmlns:inkscape="http://www.inkscape.org/namespaces/inkscape"
   version="1.1"
   id="svg837"
   xml:space="preserve"
   width="1122.52"
   height="793.70667"
   viewBox="0 0 1122.52 793.70667"
   sodipodi:docname="assinatura_visual.svg"
   inkscape:version="1.0.1 (3bc2e813f5, 2020-09-07)"><metadata
     id="metadata843"><rdf:RDF><cc:Work
         rdf:about=""><dc:format>image/svg+xml</dc:format><dc:type
           rdf:resource="http://purl.org/dc/dcmitype/StillImage" /><dc:title></dc:title></cc:Work></rdf:RDF></metadata><defs
     id="defs841"><clipPath
       clipPathUnits="userSpaceOnUse"
       id="clipPath853"><path
         d="M 0,595.28 H 841.89 V 0 H 0 Z"
         id="path851" /></clipPath><clipPath
       clipPathUnits="userSpaceOnUse"
       id="clipPath915"><path
         d="m 103.512,297.64 c 0,-65.283 52.922,-118.206 118.206,-118.206 v 0 c 65.283,0 118.206,52.923 118.206,118.206 v 0 c 0,65.283 -52.923,118.206 -118.206,118.206 v 0 c -65.284,0 -118.206,-52.923 -118.206,-118.206"
         id="path913" /></clipPath><radialGradient
       fx="0"
       fy="0"
       cx="0"
       cy="0"
       r="1"
       gradientUnits="userSpaceOnUse"
       gradientTransform="matrix(116.08147,76.885132,76.885132,-116.08147,153.51338,261.41699)"
       spreadMethod="pad"
       id="radialGradient929"><stop
         style="stop-opacity:1;stop-color:#00588f"
         offset="0"
         id="stop921" /><stop
         style="stop-opacity:1;stop-color:#07538d"
         offset="0.100539"
         id="stop923" /><stop
         style="stop-opacity:1;stop-color:#164286"
         offset="0.402523"
         id="stop925" /><stop
         style="stop-opacity:1;stop-color:#273270"
         offset="1"
         id="stop927" /></radialGradient><clipPath
       clipPathUnits="userSpaceOnUse"
       id="clipPath939"><path
         d="M 0,595.28 H 841.89 V 0 H 0 Z"
         id="path937" /></clipPath><clipPath
       clipPathUnits="userSpaceOnUse"
       id="clipPath947"><path
         d="M 138.822,380.536 H 336.498 V 182.86 H 138.822 Z"
         id="path945" /></clipPath><clipPath
       clipPathUnits="userSpaceOnUse"
       id="clipPath951"><path
         d="m 221.718,182.86 c 63.391,0 114.78,51.389 114.78,114.78 0,32.588 -13.584,62.003 -35.395,82.896 19.748,-20.616 31.884,-48.583 31.884,-79.385 0,-63.392 -51.389,-114.78 -114.78,-114.78 -30.802,0 -58.769,12.135 -79.385,31.884 20.893,-21.812 50.307,-35.395 82.896,-35.395"
         id="path949" /></clipPath><radialGradient
       fx="0"
       fy="0"
       cx="0"
       cy="0"
       r="1"
       gradientUnits="userSpaceOnUse"
       gradientTransform="matrix(98.837807,0,0,-98.837807,237.65976,281.69806)"
       spreadMethod="pad"
       id="radialGradient961"><stop
         style="stop-opacity:1;stop-color:#00588f"
         offset="0"
         id="stop953" /><stop
         style="stop-opacity:1;stop-color:#07538d"
         offset="0.100539"
         id="stop955" /><stop
         style="stop-opacity:1;stop-color:#164286"
         offset="0.402523"
         id="stop957" /><stop
         style="stop-opacity:1;stop-color:#273270"
         offset="1"
         id="stop959" /></radialGradient><clipPath
       clipPathUnits="userSpaceOnUse"
       id="clipPath983"><path
         d="m 240.59,415.846 h 12.962 V 278.492 H 240.59 Z"
         id="path981" /></clipPath><clipPath
       clipPathUnits="userSpaceOnUse"
       id="clipPath987"><path
         d="m 248.205,278.492 -7.615,137.354 7.615,-6.504 5.347,-21.581 z"
         id="path985" /></clipPath><radialGradient
       fx="0"
       fy="0"
       cx="0"
       cy="0"
       r="1"
       gradientUnits="userSpaceOnUse"
       gradientTransform="matrix(48.777641,0,0,-48.777641,247.07103,347.16898)"
       spreadMethod="pad"
       id="radialGradient997"><stop
         style="stop-opacity:1;stop-color:#00588f"
         offset="0"
         id="stop989" /><stop
         style="stop-opacity:1;stop-color:#07538d"
         offset="0.100539"
         id="stop991" /><stop
         style="stop-opacity:1;stop-color:#164286"
         offset="0.402523"
         id="stop993" /><stop
         style="stop-opacity:1;stop-color:#273270"
         offset="1"
         id="stop995" /></radialGradient><clipPath
       clipPathUnits="userSpaceOnUse"
       id="clipPath1019"><path
         d="m 179.56,349.704 h 10.802 V 187.93 H 179.56 Z"
         id="path1017" /></clipPath><clipPath
       clipPathUnits="userSpaceOnUse"
       id="clipPath1023"><path
         d="m 186.401,349.704 -6.841,-161.774 6.841,0.475 3.961,137.247 z"
         id="path1021" /></clipPath><radialGradient
       fx="0"
       fy="0"
       cx="0"
       cy="0"
       r="1"
       gradientUnits="userSpaceOnUse"
       gradientTransform="matrix(57.323032,0,0,-57.323032,184.96124,268.81686)"
       spreadMethod="pad"
       id="radialGradient1033"><stop
         style="stop-opacity:1;stop-color:#00588f"
         offset="0"
         id="stop1025" /><stop
         style="stop-opacity:1;stop-color:#07538d"
         offset="0.100539"
         id="stop1027" /><stop
         style="stop-opacity:1;stop-color:#164286"
         offset="0.402523"
         id="stop1029" /><stop
         style="stop-opacity:1;stop-color:#273270"
         offset="1"
         id="stop1031" /></radialGradient><clipPath
       clipPathUnits="userSpaceOnUse"
       id="clipPath1055"><path
         d="m 248.206,468.359 v -33.576 -7.357 -9.031 c -8.535,1.863 -17.396,2.854 -26.488,2.854 v 0 c -68.267,0 -123.609,-55.341 -123.609,-123.609 v 0 c 0,-55.994 37.235,-103.283 88.292,-118.481 v 0 -9.188 -4.769 -38.28 h 8.829 v 28.196 12.736 9.031 c 8.534,-1.863 17.395,-2.854 26.488,-2.854 v 0 c 68.267,0 123.608,55.342 123.608,123.609 v 0 c 0,55.994 -37.234,103.283 -88.291,118.48 v 0 18.663 33.576 z M 106.938,297.64 c 0,63.391 51.389,114.78 114.78,114.78 v 0 c 9.117,0 17.983,-1.069 26.488,-3.078 v 0 -9.089 -121.761 l -52.976,90.815 h -0.04 l 0.04,0.063 -8.829,14.539 v -17.78 l 0.102,-0.063 h -0.102 l 61.805,-105.95 h 0.039 l 8.79,-14.468 v 14.468 0.065 137.372 9.322 c 46.108,-14.897 79.462,-58.167 79.462,-109.235 v 0 c 0,-63.391 -51.388,-114.78 -114.779,-114.78 v 0 c -9.117,0 -17.984,1.068 -26.488,3.077 v 0 9.09 12.113 8.829 h 18.415 12.368 v 8.83 H 213.645 195.23 v 91.988 l 52.976,-90.814 8.829,-14.533 v 17.774 l -61.805,105.95 -8.829,14.54 v -14.54 -110.365 -8.83 -8.829 -9.414 -9.321 c -46.109,14.897 -79.463,58.167 -79.463,109.235"
         id="path1053" /></clipPath><linearGradient
       x1="0"
       y1="0"
       x2="1"
       y2="0"
       gradientUnits="userSpaceOnUse"
       gradientTransform="matrix(-101.53599,-190.10994,-190.10994,101.53599,288.62582,422.91458)"
       spreadMethod="pad"
       id="linearGradient1067"><stop
         style="stop-opacity:1;stop-color:#78c8cc"
         offset="0"
         id="stop1061" /><stop
         style="stop-opacity:1;stop-color:#45bcc9"
         offset="0.463409"
         id="stop1063" /><stop
         style="stop-opacity:1;stop-color:#0081ab"
         offset="1"
         id="stop1065" /></linearGradient></defs><sodipodi:namedview
     pagecolor="#ffffff"
     bordercolor="#666666"
     borderopacity="1"
     objecttolerance="10"
     gridtolerance="10"
     guidetolerance="10"
     inkscape:pageopacity="0"
     inkscape:pageshadow="2"
     inkscape:window-width="1920"
     inkscape:window-height="1017"
     id="namedview839"
     showgrid="false"
     inkscape:zoom="0.36861929"
     inkscape:cx="808.80607"
     inkscape:cy="351.50555"
     inkscape:window-x="1912"
     inkscape:window-y="-8"
     inkscape:window-maximized="1"
     inkscape:current-layer="g845" /><g
     id="g845"
     inkscape:groupmode="layer"
     inkscape:label="assinatura_visual"
     transform="matrix(1.3333333,0,0,-1.3333333,0,793.70667)"><g
       id="g909"
       transform="translate(185.15038,12.207717)"><g
         id="g911"
         clip-path="url(#clipPath915)"><g
           id="g917"><g
             id="g919"><path
               d="m 103.512,297.64 c 0,-65.283 52.922,-118.206 118.206,-118.206 v 0 c 65.283,0 118.206,52.923 118.206,118.206 v 0 c 0,65.283 -52.923,118.206 -118.206,118.206 v 0 c -65.284,0 -118.206,-52.923 -118.206,-118.206"
               style="fill:url(#radialGradient929);stroke:none"
               id="path931" /></g></g></g></g><g
       id="g933"
       transform="translate(185.15038,12.207717)"><g
         id="g935"
         clip-path="url(#clipPath939)"><g
           id="g941"><g
             id="g943" /><g
             id="g975"><g
               clip-path="url(#clipPath947)"
               opacity="0.699997"
               id="g973"><g
                 id="g971"><g
                   clip-path="url(#clipPath951)"
                   id="g969"><g
                     id="g967"><g
                       id="g965"><path
                         d="m 221.718,182.86 c 63.391,0 114.78,51.389 114.78,114.78 0,32.588 -13.584,62.003 -35.395,82.896 19.748,-20.616 31.884,-48.583 31.884,-79.385 0,-63.392 -51.389,-114.78 -114.78,-114.78 -30.802,0 -58.769,12.135 -79.385,31.884 20.893,-21.812 50.307,-35.395 82.896,-35.395"
                         style="fill:url(#radialGradient961);stroke:none"
                         id="path963" /></g></g></g></g></g></g></g><g
           id="g977"><g
             id="g979" /><g
             id="g1011"><g
               clip-path="url(#clipPath983)"
               id="g1009"><g
                 id="g1007"><g
                   clip-path="url(#clipPath987)"
                   id="g1005"><g
                     id="g1003"><g
                       id="g1001"><path
                         d="m 248.205,278.492 -7.615,137.354 7.615,-6.504 5.347,-21.581 z"
                         style="fill:url(#radialGradient997);stroke:none"
                         id="path999" /></g></g></g></g></g></g></g><g
           id="g1013"><g
             id="g1015" /><g
             id="g1047"><g
               clip-path="url(#clipPath1019)"
               id="g1045"><g
                 id="g1043"><g
                   clip-path="url(#clipPath1023)"
                   id="g1041"><g
                     id="g1039"><g
                       id="g1037"><path
                         d="m 186.401,349.704 -6.841,-161.774 6.841,0.475 3.961,137.247 z"
                         style="fill:url(#radialGradient1033);stroke:none"
                         id="path1035" /></g></g></g></g></g></g></g></g></g><g
       id="g1049"
       transform="translate(185.15038,12.207717)"><g
         id="g1051"
         clip-path="url(#clipPath1055)"><g
           id="g1057"><g
             id="g1059"><path
               d="m 248.206,468.359 v -33.576 -7.357 -9.031 c -8.535,1.863 -17.396,2.854 -26.488,2.854 v 0 c -68.267,0 -123.609,-55.341 -123.609,-123.609 v 0 c 0,-55.994 37.235,-103.283 88.292,-118.481 v 0 -9.188 -4.769 -38.28 h 8.829 v 28.196 12.736 9.031 c 8.534,-1.863 17.395,-2.854 26.488,-2.854 v 0 c 68.267,0 123.608,55.342 123.608,123.609 v 0 c 0,55.994 -37.234,103.283 -88.291,118.48 v 0 18.663 33.576 z M 106.938,297.64 c 0,63.391 51.389,114.78 114.78,114.78 v 0 c 9.117,0 17.983,-1.069 26.488,-3.078 v 0 -9.089 -121.761 l -52.976,90.815 h -0.04 l 0.04,0.063 -8.829,14.539 v -17.78 l 0.102,-0.063 h -0.102 l 61.805,-105.95 h 0.039 l 8.79,-14.468 v 14.468 0.065 137.372 9.322 c 46.108,-14.897 79.462,-58.167 79.462,-109.235 v 0 c 0,-63.391 -51.388,-114.78 -114.779,-114.78 v 0 c -9.117,0 -17.984,1.068 -26.488,3.077 v 0 9.09 12.113 8.829 h 18.415 12.368 v 8.83 H 213.645 195.23 v 91.988 l 52.976,-90.814 8.829,-14.533 v 17.774 l -61.805,105.95 -8.829,14.54 v -14.54 -110.365 -8.83 -8.829 -9.414 -9.321 c -46.109,14.897 -79.463,58.167 -79.463,109.235"
               style="fill:url(#linearGradient1067);stroke:none"
               id="path1069" /></g></g></g></g></g></svg>
