<?xml version="1.0" standalone="no"?>
<!DOCTYPE svg PUBLIC "-//W3C//DTD SVG 20010904//EN"
 "http://www.w3.org/TR/2001/REC-SVG-20010904/DTD/svg10.dtd">
<svg version="1.0" xmlns="http://www.w3.org/2000/svg"
 width="240.000000pt" height="320.000000pt" viewBox="0 0 240.000000 320.000000"
 preserveAspectRatio="xMidYMid meet">

<g transform="translate(0.000000,320.000000) scale(0.100000,-0.100000)"
fill="#000000" stroke="none">
<path d="M1460 2964 l0 -236 -22 6 c-13 3 -71 11 -130 16 -555 51 -1075 -281
-1247 -795 -140 -420 -25 -871 302 -1182 122 -116 256 -199 420 -259 l77 -29
0 -242 0 -243 40 0 40 0 0 228 c0 126 2 231 5 234 4 3 25 1 48 -5 23 -6 116
-10 207 -10 134 0 183 4 260 21 158 37 291 93 425 181 86 56 258 224 313 307
240 358 266 782 74 1159 -134 260 -357 456 -646 566 l-86 32 0 244 0 243 -40
0 -40 0 0 -236z m-26 -314 l26 -10 0 -607 c-1 -480 -3 -605 -13 -592 -7 9
-140 228 -297 486 l-285 471 -3 -80 c-2 -64 1 -86 16 -111 106 -178 558 -924
603 -996 l59 -94 0 751 c0 437 4 752 9 752 18 0 150 -57 213 -93 235 -132 420
-357 502 -613 34 -107 46 -188 46 -319 0 -136 -12 -209 -51 -328 -97 -290
-323 -531 -609 -652 -174 -74 -380 -105 -562 -85 -62 7 -121 16 -130 21 -16 9
-18 26 -18 144 l0 135 150 0 150 0 0 45 0 45 -150 0 -150 0 0 427 c0 255 4
423 9 418 5 -6 107 -172 226 -370 120 -198 251 -414 292 -480 l74 -120 -3 88
-3 89 -335 553 -335 553 -3 -749 c-2 -637 -4 -749 -16 -749 -14 0 -56 17 -146
58 -137 62 -326 222 -417 352 -51 72 -112 190 -136 261 -47 137 -51 171 -52
349 0 154 3 185 24 260 127 452 524 778 986 808 109 8 288 -2 329 -18z"/>
</g>
</svg>
